<mxfile host="65bd71144e">
    <diagram id="ZUJnCy5P3kz0VrdXH7l5" name="Page-1">
        <mxGraphModel dx="2879" dy="662" grid="1" gridSize="10" guides="1" tooltips="1" connect="1" arrows="1" fold="1" page="1" pageScale="1" pageWidth="850" pageHeight="1100" math="0" shadow="0">
            <root>
                <mxCell id="0"/>
                <mxCell id="1" parent="0"/>
                <mxCell id="4" value="" style="rounded=1;whiteSpace=wrap;html=1;labelBackgroundColor=#e22222;strokeColor=#f8f6f6;fillColor=#EAC696;arcSize=2;" parent="1" vertex="1">
                    <mxGeometry x="-1150" y="15" width="830" height="1070" as="geometry"/>
                </mxCell>
                <mxCell id="17" value="" style="rounded=1;whiteSpace=wrap;html=1;labelBackgroundColor=none;strokeColor=#DBBF89;fillColor=#FFD8A3;" parent="1" vertex="1">
                    <mxGeometry x="720" y="680" width="120" height="60" as="geometry"/>
                </mxCell>
                <mxCell id="5" value="" style="rounded=1;whiteSpace=wrap;html=1;labelBackgroundColor=#e22222;strokeColor=none;fillColor=#C8AE7D;" parent="1" vertex="1">
                    <mxGeometry x="20" y="70" width="810" height="62" as="geometry"/>
                </mxCell>
                <mxCell id="6" value="" style="rounded=1;whiteSpace=wrap;html=1;labelBackgroundColor=none;strokeColor=none;fillColor=#765827;align=left;" parent="1" vertex="1">
                    <mxGeometry x="20" y="32" width="810" height="30" as="geometry"/>
                </mxCell>
                <mxCell id="7" value="" style="rounded=1;whiteSpace=wrap;html=1;labelBackgroundColor=#e22222;strokeColor=none;fillColor=#C8AE7D;arcSize=3;" parent="1" vertex="1">
                    <mxGeometry x="50" y="670" width="750" height="80" as="geometry"/>
                </mxCell>
                <mxCell id="8" value="" style="rounded=1;whiteSpace=wrap;html=1;labelBackgroundColor=#e22222;strokeColor=none;fillColor=#FFD8A3;arcSize=2;" parent="1" vertex="1">
                    <mxGeometry x="50" y="760" width="110" height="270" as="geometry"/>
                </mxCell>
                <mxCell id="12" value="" style="ellipse;whiteSpace=wrap;html=1;labelBackgroundColor=#e22222;strokeColor=none;fillColor=#765827;rotation=30;" parent="1" vertex="1">
                    <mxGeometry x="610" y="180" width="140" height="110" as="geometry"/>
                </mxCell>
                <mxCell id="13" value="" style="ellipse;whiteSpace=wrap;html=1;labelBackgroundColor=#e22222;strokeColor=none;fillColor=#765827;rotation=-10;" parent="1" vertex="1">
                    <mxGeometry x="690" y="360" width="140" height="110" as="geometry"/>
                </mxCell>
                <mxCell id="14" value="" style="ellipse;whiteSpace=wrap;html=1;labelBackgroundColor=#e22222;strokeColor=none;fillColor=#765827;rotation=15;" parent="1" vertex="1">
                    <mxGeometry x="610" y="510" width="140" height="110" as="geometry"/>
                </mxCell>
                <mxCell id="15" value="" style="ellipse;whiteSpace=wrap;html=1;labelBackgroundColor=#e22222;strokeColor=none;fillColor=#C8AE7D;rotation=30;" parent="1" vertex="1">
                    <mxGeometry x="270" y="200" width="310" height="390" as="geometry"/>
                </mxCell>
                <mxCell id="18" value="" style="rounded=1;whiteSpace=wrap;html=1;labelBackgroundColor=#e22222;strokeColor=none;fillColor=#B39772;arcSize=2;" parent="1" vertex="1">
                    <mxGeometry x="160" y="760" width="110" height="270" as="geometry"/>
                </mxCell>
                <mxCell id="21" value="" style="rounded=1;whiteSpace=wrap;html=1;labelBackgroundColor=#e22222;strokeColor=none;fillColor=#FFD8A3;arcSize=2;" parent="1" vertex="1">
                    <mxGeometry x="270" y="760" width="110" height="270" as="geometry"/>
                </mxCell>
                <mxCell id="22" value="" style="rounded=1;whiteSpace=wrap;html=1;labelBackgroundColor=#e22222;strokeColor=none;fillColor=#B39772;arcSize=2;" parent="1" vertex="1">
                    <mxGeometry x="380" y="760" width="110" height="270" as="geometry"/>
                </mxCell>
                <mxCell id="23" value="" style="rounded=1;whiteSpace=wrap;html=1;labelBackgroundColor=#e22222;strokeColor=none;fillColor=#FFD8A3;arcSize=2;" parent="1" vertex="1">
                    <mxGeometry x="490" y="760" width="110" height="270" as="geometry"/>
                </mxCell>
                <mxCell id="24" value="" style="rounded=1;whiteSpace=wrap;html=1;labelBackgroundColor=#e22222;strokeColor=none;fillColor=#B39772;arcSize=2;" parent="1" vertex="1">
                    <mxGeometry x="600" y="760" width="110" height="270" as="geometry"/>
                </mxCell>
                <mxCell id="26" value="" style="rounded=1;whiteSpace=wrap;html=1;labelBackgroundColor=#e22222;strokeColor=none;fillColor=#FFD8A3;arcSize=2;" parent="1" vertex="1">
                    <mxGeometry x="700" y="760" width="100" height="270" as="geometry"/>
                </mxCell>
                <mxCell id="27" value="" style="endArrow=none;dashed=1;html=1;" edge="1" parent="1">
                    <mxGeometry width="50" height="50" relative="1" as="geometry">
                        <mxPoint x="600" y="640" as="sourcePoint"/>
                        <mxPoint x="600" y="150" as="targetPoint"/>
                    </mxGeometry>
                </mxCell>
            </root>
        </mxGraphModel>
    </diagram>
</mxfile>